# File generated by ImageToStl.com - Free Image and 3D model conversion tools

o obj1
v 28 25 165
v 0 25 165
v 0 20 165
v 12.7 20 165
v 12.7 7.5 165
v 14.5 -0 165
v 14.5 -140 165
v 28 -140 165
v 0 7.5 165
v 0 -0 165
v 14.5 0 0
v 0 0 0
v 0 7.5 0
v 12.7 7.5 0
v 12.7 20 0
v 28 25 0
v 28 -50 0
v 14.5 -50 -0
v 0 25 0
v 0 20 -0
v 14.5 -50 30
v 28 -50 30
v 30 -138 163
v 30 -138 152
v 30 23 163
v 30 2 152
v 30 23 2
v 30 2 28
v 30 -48 2
v 30 -48 28
v 28 0 30
v 14.5 0 30
v 14.5 0 150
v 28 0 150
v 14.5 -140 150
v 28 -140 150
v 29.56499 -49.24532 29.24531
v 29.56499 0.7546843 29.24531
v 29.14931 -49.63679 29.63679
v 29.14931 0.363212 29.63679
v 28.25311 -49.98392 29.98392
v 28.25311 0.01608025 29.98392
v 29.56499 0.7546858 150.7547
v 29.14931 0.363212 150.3632
v 28.25311 0.01608025 150.0161
v 28.25311 -139.9839 150.0161
v 29.14931 -139.6368 150.3632
v 29.56499 -139.2453 150.7547
v 29.56499 -139.2453 164.2453
v 29.14931 -139.6368 164.6368
v 28.25311 -139.9839 164.9839
v 29.56499 24.24532 164.2453
v 29.14931 24.63679 164.6368
v 28.25311 24.98392 164.9839
v 28.25311 24.98392 0.01608025
v 29.14931 24.63679 0.363212
v 29.56499 24.24531 0.7546843
v 28.25311 -49.98392 0.01608025
v 29.14931 -49.63679 0.363212
v 29.56499 -49.24532 0.7546858
vn -0 0 1
vn 0 0 -1
vn 0 0 -1
vn 0 0 -1
vn -0 -1 0
vn 1 0 0
vn 1 -0 0
vn 0 -1 -0
vn -0 -1 -0
vn 0 1 0
vn 0.94406 0 0.32978
vn 0.6856 0 0.72798
vn 0.36119 0 0.93249
vn 0.06341 0 0.99799
vn 0.94406 -0.32978 0
vn 0.94406 -0.32978 0
vn 0.6856 -0.72798 0
vn 0.6856 -0.72798 0
vn 0.36119 -0.93249 0
vn 0.0634 -0.99799 0
vn 0.0634 -0.99799 0
vn 0.06341 0 -0.99799
vn 0.36118 0 -0.9325
vn 0.6856 0 -0.72798
vn 0.94406 0 -0.32978
vn 0.94406 -0.32978 0
vn 0.6856 -0.72798 0
vn 0.6856 -0.72798 0
vn 0.36118 -0.9325 0
vn 0.36118 -0.9325 0
vn 0.06341 -0.99799 0
vn 0.94406 0 0.32978
vn 0.6856 0 0.72798
vn 0.6856 -0 0.72798
vn 0.36118 0 0.9325
vn 0.36118 -0 0.9325
vn 0.06341 0 0.99799
vn 0.06341 0.99799 0
vn 0.06341 0.99799 -0
vn 0.36119 0.93249 0
vn 0.6856 0.72798 0
vn 0.6856 0.72798 -0
vn 0.94406 0.32978 -0
vn 0.94406 0.32978 -0
vn 0.0634 0 -0.99799
vn 0.0634 0 -0.99799
vn 0.36119 0 -0.93249
vn 0.6856 0 -0.72798
vn 0.6856 -0 -0.72798
vn 0.94406 -0 -0.32978
vn 0.6856 -0.72798 0
vn 0.6856 -0.72798 0
vn 0.36119 -0.93249 0
vn 0.36119 -0.93249 0
vn 0.0634 -0.99799 0
vn -1 0 0
f 1//1 2//1 3//1
f 1//1 3//1 4//1
f 1//1 4//1 5//1
f 1//1 5//1 6//1
f 1//1 6//1 7//1
f 1//1 7//1 8//1
f 5//1 9//1 6//1
f 6//1 9//1 10//1
f 11//2 12//2 13//2
f 11//2 13//2 14//2
f 11//2 14//2 15//2
f 11//2 15//2 16//2
f 11//2 16//2 17//2
f 11//3 17//3 18//3
f 16//2 15//2 19//2
f 19//4 15//4 20//4
f 18//5 17//5 21//5
f 21//5 17//5 22//5
f 23//6 24//6 25//6
f 25//6 24//6 26//6
f 25//7 26//7 27//7
f 27//6 26//6 28//6
f 27//6 28//6 29//6
f 29//6 28//6 30//6
f 22//1 31//1 21//1
f 21//1 31//1 32//1
f 12//5 11//5 32//5
f 12//5 32//5 33//5
f 12//8 33//8 6//8
f 12//9 6//9 10//9
f 31//5 34//5 32//5
f 32//5 34//5 33//5
f 35//2 33//2 36//2
f 36//2 33//2 34//2
f 35//5 36//5 7//5
f 7//5 36//5 8//5
f 16//10 19//10 1//10
f 1//10 19//10 2//10
f 30//11 28//11 37//11
f 37//11 28//11 38//11
f 37//12 38//12 39//12
f 39//12 38//12 40//12
f 39//13 40//13 41//13
f 41//13 40//13 42//13
f 41//14 42//14 22//14
f 22//14 42//14 31//14
f 28//15 26//15 38//15
f 38//16 26//16 43//16
f 38//17 43//17 40//17
f 40//18 43//18 44//18
f 40//19 44//19 42//19
f 42//19 44//19 45//19
f 42//20 45//20 31//20
f 31//21 45//21 34//21
f 36//22 34//22 46//22
f 46//22 34//22 45//22
f 46//23 45//23 47//23
f 47//23 45//23 44//23
f 47//24 44//24 48//24
f 48//24 44//24 43//24
f 48//25 43//25 24//25
f 24//25 43//25 26//25
f 24//26 23//26 48//26
f 48//15 23//15 49//15
f 48//27 49//27 47//27
f 47//28 49//28 50//28
f 47//29 50//29 46//29
f 46//30 50//30 51//30
f 46//31 51//31 36//31
f 36//31 51//31 8//31
f 23//32 25//32 49//32
f 49//32 25//32 52//32
f 49//33 52//33 50//33
f 50//34 52//34 53//34
f 50//35 53//35 51//35
f 51//36 53//36 54//36
f 51//37 54//37 8//37
f 8//37 54//37 1//37
f 16//38 1//38 55//38
f 55//39 1//39 54//39
f 55//40 54//40 56//40
f 56//40 54//40 53//40
f 56//41 53//41 57//41
f 57//42 53//42 52//42
f 57//43 52//43 27//43
f 27//44 52//44 25//44
f 17//45 16//45 58//45
f 58//46 16//46 55//46
f 58//47 55//47 59//47
f 59//47 55//47 56//47
f 59//48 56//48 60//48
f 60//49 56//49 57//49
f 60//50 57//50 29//50
f 29//25 57//25 27//25
f 29//15 30//15 60//15
f 60//15 30//15 37//15
f 60//51 37//51 59//51
f 59//52 37//52 39//52
f 59//53 39//53 58//53
f 58//54 39//54 41//54
f 58//55 41//55 17//55
f 17//55 41//55 22//55
f 12//56 10//56 13//56
f 13//56 10//56 9//56
f 20//56 3//56 19//56
f 19//56 3//56 2//56
f 4//5 3//5 15//5
f 15//5 3//5 20//5
f 14//10 13//10 5//10
f 5//10 13//10 9//10
f 15//56 14//56 4//56
f 4//56 14//56 5//56
f 21//56 32//56 18//56
f 18//56 32//56 11//56
f 7//56 6//56 35//56
f 35//56 6//56 33//56
# Vertices: 60, normals: 56, texture coordinates: 0, faces: 116

